<svg width="25" height="25" viewBox="0 0 25 25" fill="none" xmlns="http://www.w3.org/2000/svg">
<path d="M23.8133 0.76415C23.7339 0.744258 23.6499 0.751516 23.5753 0.784703C23.5008 0.817889 23.4403 0.874978 23.4041 0.946364C23.3716 1.01105 22.5671 2.54606 19.0432 4.35204C18.9946 4.37267 18.9513 4.40363 18.9166 4.44263C18.8819 4.48164 18.8566 4.52771 18.8427 4.57744C18.6225 5.37774 18.3239 6.15576 17.951 6.90087C17.7453 6.46834 17.6074 6.00837 17.542 5.53623C17.5342 5.48389 17.5142 5.43398 17.4834 5.39035C17.4526 5.34672 17.4119 5.31054 17.3644 5.2846C17.3169 5.25867 17.2639 5.24367 17.2095 5.24076C17.1551 5.23785 17.1008 5.24712 17.0506 5.26784C16.1192 5.65298 15.1054 6.01977 14.0374 6.35778C12.6213 6.79699 11.2549 7.37495 9.95939 8.0827C9.88444 8.12443 9.82773 8.19124 9.79988 8.27063C9.63922 8.72814 9.46569 9.16027 9.27928 9.56704C9.28701 9.43136 9.2973 9.28714 9.31017 9.13438C9.31575 9.06918 9.30211 9.00378 9.27086 8.94582C9.2396 8.88785 9.19201 8.8397 9.13363 8.80698C9.07525 8.77426 9.0085 8.75832 8.94114 8.76102C8.87378 8.76371 8.80861 8.78493 8.7532 8.8222C5.14052 11.2502 3.17193 14.6769 2.5605 19.5938C1.63486 20.5334 0.821764 21.5717 0.136737 22.6888C0.00878215 22.8998 -0.0313056 23.1503 0.0246674 23.389C0.0806405 23.6277 0.228448 23.8367 0.437878 23.9732C0.592624 24.07 0.772768 24.1215 0.95685 24.1217H17.2128C17.3071 24.1217 17.3976 24.0853 17.4642 24.0206C17.5309 23.9559 17.5684 23.8681 17.5684 23.7766C17.5684 23.6851 17.5309 23.5973 17.4642 23.5326C17.3976 23.4679 17.3071 23.4315 17.2128 23.4315H1.93444C2.55188 22.4664 3.27433 21.5685 4.08937 20.7531C7.59476 20.5863 15.7231 19.8992 18.9176 17.0962C19.1495 16.8926 19.37 16.6771 19.5782 16.4508C19.62 16.4057 19.6487 16.3507 19.6616 16.2914C19.6745 16.2321 19.6711 16.1705 19.6517 16.1129C19.6323 16.0553 19.5976 16.0037 19.5511 15.9632C19.5046 15.9228 19.4479 15.8949 19.3868 15.8824C19.3106 15.867 19.2352 15.8509 19.1603 15.8345C19.413 15.7998 19.6971 15.7669 20.0102 15.7396C20.0622 15.735 20.1125 15.7194 20.1576 15.6938C20.2027 15.6682 20.2414 15.6334 20.2712 15.5917C22.8678 11.9348 23.6152 9.09395 24.0785 1.11714C24.083 1.03765 24.0591 0.959076 24.0108 0.894743C23.9625 0.83041 23.8927 0.784273 23.8133 0.76415ZM0.751009 23.0365C2.96588 19.3488 7.06441 16.5464 11.4033 13.5799C12.3112 12.9593 13.341 12.2559 14.328 11.5525C14.3717 11.521 14.4246 11.504 14.479 11.504C14.4926 11.504 14.5062 11.505 14.5196 11.5071C14.5525 11.512 14.584 11.5233 14.6124 11.5402C14.6407 11.5572 14.6653 11.5794 14.6846 11.6057C14.7241 11.6584 14.7406 11.7241 14.7304 11.7885C14.7203 11.853 14.6844 11.9109 14.6305 11.9498C13.6391 12.6544 12.6067 13.3602 11.6951 13.983C7.39481 16.9233 3.33286 19.7004 1.17468 23.3092C1.15753 23.3379 1.13454 23.363 1.1071 23.3828C1.07966 23.4026 1.04835 23.4168 1.01508 23.4245C0.981814 23.4322 0.947279 23.4332 0.913582 23.4275C0.879885 23.4219 0.847731 23.4096 0.81908 23.3915C0.764083 23.3513 0.726593 23.2925 0.713994 23.2268C0.701395 23.1611 0.7146 23.0932 0.751009 23.0365ZM19.779 15.0674C19.0262 15.1282 18.2805 15.2536 17.5505 15.4421C17.4789 15.4631 17.416 15.5056 17.3706 15.5634C17.3253 15.6211 17.2999 15.6913 17.298 15.7639C17.2962 15.8365 17.3179 15.9078 17.3602 15.9677C17.4025 16.0276 17.4632 16.0731 17.5336 16.0976C17.8758 16.2159 18.2406 16.3236 18.6234 16.4186C18.5624 16.4752 18.5025 16.53 18.4405 16.5837C15.5933 19.082 8.17632 19.8148 4.83877 20.0207C6.89352 18.1112 9.45322 16.3606 12.1056 14.5474C13.02 13.9228 14.0543 13.2151 15.0501 12.5061C15.2551 12.3591 15.392 12.1394 15.4312 11.895C15.4703 11.6505 15.4085 11.401 15.2592 11.2005C15.1846 11.1005 15.0903 11.0159 14.9818 10.9515C14.8733 10.8871 14.7528 10.8442 14.6271 10.8252C14.5015 10.8062 14.3732 10.8115 14.2496 10.8409C14.1261 10.8702 14.0098 10.923 13.9074 10.9962C12.9251 11.6954 11.8989 12.3963 10.9937 13.0159C8.23342 14.9031 5.56947 16.7249 3.40052 18.7618C4.06194 14.8138 5.71862 11.9358 8.55529 9.81669C8.5349 10.2191 8.54026 10.6222 8.57134 11.024C8.57881 11.0962 8.60956 11.1643 8.65921 11.2186C8.70887 11.2729 8.77489 11.3106 8.84791 11.3264C8.92092 11.3421 8.99719 11.3351 9.06589 11.3064C9.13458 11.2777 9.19219 11.2287 9.23052 11.1663C9.71683 10.3578 10.1185 9.50397 10.4294 8.61771C11.6489 7.96316 12.9315 7.42605 14.2589 7.01406C15.1916 6.71826 16.0844 6.40155 16.9194 6.06947C17.1774 7.21955 17.6765 7.79991 17.7003 7.82673C17.7373 7.869 17.7844 7.90197 17.8374 7.92284C17.8903 7.94371 17.9477 7.95187 18.0047 7.94662C18.0616 7.94138 18.1164 7.92288 18.1644 7.89271C18.2124 7.86253 18.2522 7.82157 18.2804 7.77329C18.7994 6.86729 19.2047 5.90419 19.4876 4.9046C21.4883 3.86613 22.6486 2.90063 23.2982 2.22068C22.843 9.08764 22.0855 11.7777 19.779 15.0674Z" fill="#2B2A29"/>
</svg>
